<svg width="37" height="38" viewBox="0 0 37 38" fill="none" xmlns="http://www.w3.org/2000/svg">
<g id="graduationcap.fill">
<g id="Group">
<path id="Vector" d="M35.2504 11.7807L22.24 5.82702C20.8844 5.2157 19.7813 4.92332 18.6783 4.9499C17.5885 4.92332 16.4855 5.2157 15.1167 5.82702L2.11945 11.7807C1.26891 12.1662 0.856934 12.8439 0.856934 13.5217C0.856934 14.1994 1.26891 14.864 2.11945 15.2627L7.59477 17.7611L16.0071 13.8141C15.9274 13.7211 15.9007 13.6147 15.9007 13.5217C15.9007 12.6844 17.3095 12.0465 18.7314 12.0465C20.1667 12.0465 21.5489 12.6844 21.5489 13.5217C21.5489 14.3855 20.1667 15.0367 18.7314 15.0367C18.2929 15.0367 17.8544 14.9702 17.4689 14.864L9.44202 18.6249L15.1167 21.2297C16.4855 21.8542 17.5885 22.1201 18.6783 22.1068C19.7813 22.1201 20.8844 21.8542 22.24 21.2297L35.2504 15.2627C36.101 14.864 36.513 14.1994 36.513 13.5217C36.513 12.8439 36.101 12.1662 35.2504 11.7807ZM9.38887 20.5918V28.6719C11.6215 30.0274 14.811 30.8513 18.6783 30.8513C26.5192 30.8513 31.5692 27.4891 31.5692 23.5155V18.9438L22.9974 22.8643C21.4425 23.582 20.0339 23.9408 18.6783 23.9275C17.336 23.9408 15.914 23.582 14.3591 22.8643L9.38887 20.5918ZM5.80067 18.9438V23.5155C5.80067 24.6717 6.46515 26.1069 7.66121 27.3296V19.8077L5.80067 18.9438ZM7.66121 31.755H9.38887V28.6719C8.72438 28.2732 8.13965 27.8214 7.66121 27.3296V31.755ZM6.61134 31.8481V35.3433C6.61134 36.3932 7.28911 37.0709 8.33899 37.0709H8.6978C9.74768 37.0709 10.4255 36.3932 10.4255 35.3433V31.8481C10.4255 30.7982 9.74768 30.1204 8.6978 30.1204H8.33899C7.28911 30.1204 6.61134 30.7982 6.61134 31.8481Z" fill="#262626"/>
</g>
</g>
</svg>
